PathFileType	4	(X/Y/Z)	C:/Users/opensim2020/Desktop/walking_exp_matlab/subject02_walking07_straight_03.trc	
DataRate	CameraRate	NumFrames	NumMarkers	Units	OrigDataRate	OrigDataStartFrame	OrigNumFrames	
100.00	100.00	8	50	mm	100.00	2094	203	
Frame#	Time	LFHD			RFHD			LBHD			RBHD			C7			T10			CLAV			STRN			RBAK			LSHO			LUPA			LELB			LFRM			LWRA			LWRB			LFIN			RSHO			RUPA			RELB			RFRM			RWRA			RWRB			RFIN			LASI			RASI			LPSI			RPSI			LTHI			LKNE			LTIB			LANK			LHEE			LTOE			RTHI			RKNE			RTIB			RANK			RHEE			RTOE			*39			*40			*41			*42			*43			*44			*45			*46			*47			*48			*49			
		X1	Y1	Z1	X2	Y2	Z2	X3	Y3	Z3	X4	Y4	Z4	X5	Y5	Z5	X6	Y6	Z6	X7	Y7	Z7	X8	Y8	Z8	X9	Y9	Z9	X10	Y10	Z10	X11	Y11	Z11	X12	Y12	Z12	X13	Y13	Z13	X14	Y14	Z14	X15	Y15	Z15	X16	Y16	Z16	X17	Y17	Z17	X18	Y18	Z18	X19	Y19	Z19	X20	Y20	Z20	X21	Y21	Z21	X22	Y22	Z22	X23	Y23	Z23	X24	Y24	Z24	X25	Y25	Z25	X26	Y26	Z26	X27	Y27	Z27	X28	Y28	Z28	X29	Y29	Z29	X30	Y30	Z30	X31	Y31	Z31	X32	Y32	Z32	X33	Y33	Z33	X34	Y34	Z34	X35	Y35	Z35	X36	Y36	Z36	X37	Y37	Z37	X38	Y38	Z38	X39	Y39	Z39	X40	Y40	Z40	X41	Y41	Z41	X42	Y42	Z42	X43	Y43	Z43	X44	Y44	Z44	X45	Y45	Z45	X46	Y46	Z46	X47	Y47	Z47	X48	Y48	Z48	X49	Y49	Z49	X50	Y50	Z50	

102	1.010	1380.83643	51.76338	1751.89954	1523.15076	63.75314	1730.09070	1373.48596	-47.41350	1637.88843	1514.64404	-46.32898	1610.85596	1431.02258	-69.90269	1506.66089	1435.29138	-107.37639	1231.69434	1426.50281	73.44920	1450.42200	1436.84656	135.69806	1280.94812	1488.55566	-120.67373	1331.01819	1254.11768	13.61155	1490.23914	1167.65149	34.47643	1293.02246	1150.01855	60.89213	1154.83533	1136.66980	111.54469	1031.29065	1172.01208	202.31248	930.96075	1136.60437	160.04738	918.10083	1134.57825	199.28265	864.52264	1621.01770	-1.59880	1475.45300	1699.30383	-34.05801	1283.22620	1719.49341	-19.83120	1139.87830	1748.78076	0.86930	1024.73975	1743.14673	45.63076	894.56232	1769.56226	-4.73262	896.19818	1778.09863	25.97958	829.70264	1316.67981	126.73145	968.41376	1565.90027	133.67651	975.11926	1393.18774	-80.91052	1016.14362	1510.27539	-83.20402	1021.06573	1245.62305	36.64396	658.50952	1252.57043	-5.07831	474.23398	1253.30811	-155.32805	363.01141	1276.47888	-291.98187	187.92021	1334.04150	-325.88635	190.07095	1258.34570	-225.49692	46.07883	1633.60474	114.14315	671.00574	1584.70044	154.78667	467.37595	1582.92065	126.12635	279.87784	1536.29395	118.23917	89.38966	1477.76404	87.97291	37.39169	1559.46362	270.33569	38.80341	1476.65942	-62.21648	1776.33459	-3356.83643	2845.97583	1033.86206																											 
103	1.020	1383.01160	60.68843	1753.41333	1525.26709	72.80820	1731.50427	1375.64038	-38.53156	1639.34229	1516.84644	-37.32953	1612.30200	1433.57275	-60.94698	1508.07373	1438.37158	-98.45219	1233.28589	1428.25403	82.48411	1451.86169	1438.70325	144.77388	1282.37402	1491.82776	-111.38900	1332.67297	1256.11096	21.51085	1491.33569	1169.92371	40.02212	1293.56299	1153.75891	64.28715	1154.90295	1139.98291	111.23058	1029.92651	1174.95691	198.14285	925.98340	1139.24438	156.31059	915.16541	1137.49170	192.69621	859.57074	1623.05835	8.37752	1477.18469	1701.87708	-22.36787	1284.84241	1721.72607	-6.89141	1141.20996	1750.94958	15.81089	1026.47632	1744.75037	62.40775	896.95508	1771.47412	12.18075	897.77087	1779.67114	43.97020	831.77594	1318.50269	135.04344	969.64520	1567.80408	142.55614	975.64001	1396.19580	-72.33131	1017.49341	1513.30640	-73.99638	1023.06329	1246.90161	50.77667	659.43091	1253.24072	13.90422	475.18286	1253.58020	-136.51416	365.49442	1279.67053	-275.57327	192.95056	1337.78687	-308.75735	193.64412	1255.66333	-208.79167	52.40715	1634.78064	120.08765	671.62354	1585.95020	157.94257	467.17764	1584.08716	128.50458	279.73492	1536.66602	118.44412	89.48302	1477.96777	88.30280	36.86949	1559.37134	270.44016	38.80512	1478.82605	-53.19310	1777.71057																														 
104	1.030	1384.96985	69.52313	1754.89270	1527.32214	81.81551	1732.95898	1377.66968	-29.53675	1640.74829	1518.96252	-28.28612	1613.70850	1436.01086	-51.75245	1509.51672	1441.31885	-89.44832	1234.73291	1429.96155	91.49330	1453.28003	1440.32458	153.69345	1283.66943	1494.80347	-102.16653	1334.16235	1258.00781	29.43951	1492.46094	1172.31006	45.69840	1294.16284	1157.34583	67.77360	1154.90771	1142.83887	110.02863	1028.70190	1177.79895	193.72472	921.37012	1141.69385	151.65359	912.51941	1140.43604	185.85921	855.20990	1625.24243	18.82524	1478.92249	1704.48499	-10.56396	1286.38440	1724.59229	6.46131	1142.87109	1753.17566	30.87669	1028.18506	1746.26477	79.45247	899.42389	1773.37097	29.41094	899.40466	1781.28015	62.31747	833.94067	1319.91809	143.20909	971.06879	1569.58630	151.40047	976.04181	1399.24329	-63.87733	1018.75092	1516.25891	-65.12923	1024.90759	1248.03735	64.54372	660.98383	1254.22534	32.86627	476.69128	1255.37744	-118.23041	368.56262	1283.09265	-257.88864	196.89671	1342.18945	-290.15176	195.54065	1253.15039	-190.22934	58.23392	1636.07971	125.75865	671.93207	1587.23828	160.85820	467.05347	1584.73328	130.48210	279.48163	1536.79956	118.63477	89.46345	1478.03735	88.36447	36.71429	1559.49438	270.30664	38.68761	1481.33508	-44.21580	1779.62573	-3360.27979	2845.20190	1033.96692																											 
105	1.040	1387.21436	78.49816	1755.99341	1529.22913	90.78724	1734.40796	1379.74915	-20.66573	1642.25293	1520.89233	-19.25997	1615.14099	1438.30750	-42.63203	1510.99829	1444.32788	-80.50801	1236.49182	1431.51038	100.43512	1454.62292	1441.76465	162.43422	1284.83057	1498.41919	-92.99927	1336.26501	1259.70923	37.40258	1493.49268	1174.56079	51.11444	1294.68079	1160.80688	71.07456	1155.02820	1145.88098	109.27822	1027.78479	1180.68262	189.19005	917.15302	1143.87952	146.90230	910.13696	1143.25220	178.84897	851.23779	1627.29797	29.37449	1480.58374	1706.99646	1.28032	1287.88428	1727.07617	19.48069	1144.29492	1755.39941	46.15150	1029.91907	1747.79785	96.84394	902.03027	1775.44336	47.02634	901.12555	1782.81567	81.09297	836.18463	1321.13892	151.15189	972.53613	1571.25989	160.01418	976.32141	1402.22571	-55.49767	1020.01343	1519.12964	-56.55456	1026.73340	1249.03064	78.04129	662.92035	1255.38318	51.65985	478.54840	1258.67529	-99.98726	371.62857	1286.36768	-239.00908	199.72961	1345.73645	-270.91840	196.31387	1250.62268	-169.78699	63.28970	1637.85132	132.31790	672.85748	1588.14282	163.39565	466.75180	1585.13257	132.08893	279.29141	1537.06531	118.92028	89.63241	1478.07031	88.29333	36.74813	1559.52991	270.30478	38.61888	1483.05676	-35.38654	1780.59387	-3360.24243	2845.15405	1034.12305																											 
106	1.050	1388.89453	87.30331	1757.88318	1531.04370	99.78162	1735.91296	1381.63135	-11.81185	1643.75781	1522.73779	-10.21694	1616.56274	1440.63135	-33.52353	1512.83374	1447.16504	-71.75458	1238.23328	1432.94116	109.39610	1455.95642	1442.97925	171.11201	1286.05115	1501.39771	-83.92287	1338.10583	1261.34241	45.29674	1494.54077	1177.01331	56.56894	1295.03931	1164.10022	74.34136	1155.13770	1149.14771	108.27900	1026.88123	1183.45105	184.51631	913.37915	1146.52588	142.48688	908.33270	1146.06018	171.83786	847.83160	1629.48108	40.23896	1482.31104	1709.21082	13.23353	1289.27734	1730.02368	33.05048	1145.88562	1757.64185	61.61725	1031.68091	1749.14990	114.25541	904.70691	1777.11841	64.65103	902.78735	1784.30164	100.17287	838.69830	1321.86951	159.22923	974.20215	1572.94238	168.35359	976.60760	1405.22375	-47.39439	1021.38281	1521.82568	-48.18983	1028.35413	1250.10010	91.72385	664.96320	1256.74109	70.09410	480.81461	1262.42542	-81.14106	374.10883	1289.34729	-219.22958	201.37671	1349.55029	-250.77565	196.47226	1248.77271	-148.47101	67.64043	1639.37610	138.56311	673.27545	1589.12744	165.70213	466.50647	1585.49768	133.00398	279.26157	1537.01013	118.97678	89.67548	1478.02283	88.10181	37.03938	1559.61072	270.31128	38.52519	1484.96631	-26.46214	1781.98279	-3360.38281	2845.34595	1033.97974																											 
107	1.060	1390.62463	96.00354	1759.05225	1532.75208	108.75389	1737.34973	1383.35962	-2.88450	1645.20349	1524.18091	-1.41161	1617.86548	1442.78040	-24.58138	1514.58264	1449.88879	-63.15784	1240.02612	1434.27307	118.30044	1457.22070	1444.37256	179.76083	1287.10474	1504.62024	-75.00640	1340.29065	1262.88562	53.25134	1495.56372	1179.48120	61.73135	1295.44714	1167.27148	77.29010	1155.43909	1152.15210	108.11076	1026.48596	1186.28149	179.70096	910.09650	1148.92065	137.90410	906.77875	1148.82678	164.77769	845.11011	1630.97205	50.62210	1483.81335	1711.86584	25.37219	1290.80212	1732.78638	46.58815	1147.34412	1759.80322	77.28116	1033.58325	1750.42737	131.84877	907.59564	1778.94836	82.64103	904.72034	1785.71472	119.49737	841.40930	1322.38782	167.08777	975.80267	1574.71594	176.52473	977.02496	1408.08826	-39.45068	1022.86975	1524.35547	-40.02380	1029.95776	1251.19629	105.32366	667.21094	1258.04321	88.27647	483.18677	1265.95215	-62.03206	375.95959	1292.26392	-198.80023	201.84790	1352.52502	-230.22520	195.08478	1247.71655	-125.85977	71.09479	1640.71936	144.35854	673.38092	1589.81824	167.69366	466.20480	1585.74011	133.23949	279.27997	1536.64075	118.85513	89.58363	1477.95593	88.14185	37.15241	1559.65259	270.35123	38.43497	1487.07397	-17.43984	1783.56995	-3360.36816	2845.14795	1034.01990																											 
108	1.070	1392.39478	104.98927	1760.53528	1534.37939	117.69980	1738.75244	1385.04370	6.04613	1646.63538	1526.11230	7.80454	1619.32593	1444.90649	-15.31585	1516.27222	1452.53967	-54.59982	1241.84705	1435.57495	127.24848	1458.48157	1445.62878	188.28000	1288.19006	1507.93201	-65.76678	1342.61841	1264.42102	61.28593	1496.61841	1181.68933	66.49351	1295.91809	1170.23584	80.13386	1155.75391	1154.61597	106.48263	1026.14758	1189.08667	174.83997	907.26129	1151.16016	133.06859	905.62421	1151.50391	157.76178	842.79498	1633.03162	61.65210	1485.63269	1714.70532	37.83109	1292.53381	1735.53564	60.21484	1149.11475	1761.87048	93.10374	1035.65320	1751.62915	149.66489	910.68646	1780.76672	100.78838	906.84851	1787.04077	138.96790	844.35077	1323.10242	174.78323	977.50970	1576.51025	184.42987	977.60535	1410.79541	-31.65342	1024.48193	1526.77283	-32.13200	1031.50427	1252.25720	119.04659	669.62219	1259.44006	105.91637	485.67105	1269.04626	-43.04111	377.36777	1295.06665	-177.68512	201.39432	1355.76880	-208.42448	193.06305	1247.31824	-102.04262	73.67654	1641.92004	149.46864	673.28387	1590.56946	169.40623	465.95041	1586.08167	133.19058	279.45108	1536.49536	118.94552	89.63589	1477.86340	88.15632	37.18155	1559.82446	270.45538	38.46643	1488.56348	-8.67921	1784.82239	-3360.21338	2845.25171	1033.86084																											 
109	1.080	1393.81177	113.72072	1761.97083	1535.85474	126.63786	1740.15527	1386.64563	14.91676	1648.06116	1527.35657	16.64249	1620.57397	1446.83154	-6.13161	1517.71875	1455.14941	-46.16710	1243.62000	1436.76563	136.16785	1459.63782	1446.84668	196.74364	1289.17822	1510.86169	-56.77302	1344.82288	1265.99854	69.36487	1497.66101	1184.28467	71.95340	1296.59680	1173.06201	82.71570	1156.22388	1157.48169	105.41224	1026.45618	1191.91150	170.08798	904.97461	1153.78760	128.76540	905.02466	1154.17310	151.01183	841.18353	1634.51196	72.05170	1487.39319	1716.96094	50.07162	1294.08862	1737.99585	73.86034	1150.74634	1763.88257	109.07734	1037.91052	1752.62866	167.43405	914.01245	1782.49377	119.08048	909.21777	1788.36011	158.70844	847.67511	1323.97192	182.46667	979.29877	1578.45422	192.17218	978.31970	1413.31628	-23.98281	1026.28137	1528.95288	-24.30001	1032.81140	1253.36255	132.59021	672.25452	1260.79358	123.24919	488.09103	1271.85352	-24.12975	378.15588	1297.45740	-156.13658	200.00496	1357.94617	-186.85745	189.93842	1248.10327	-76.67912	75.17863	1642.98169	153.68129	673.14551	1591.11853	171.10429	465.75970	1586.26147	133.32965	279.55676	1536.38416	119.02956	89.72831	1477.71741	87.66913	37.95971	1559.85254	270.49667	38.40696	1490.52063	0.39272	1786.52893	-3357.14966	2846.00732	1034.08643																											 
